<?xml version="1.0" encoding="UTF-8" standalone="no"?>
<!DOCTYPE svg PUBLIC "-//W3C//DTD SVG 1.1//EN"
 "http://www.w3.org/Graphics/SVG/1.1/DTD/svg11.dtd">
<!-- Generated by graphviz version 10.0.1 (20240210.2158)
 -->
<!-- Pages: 1 -->
<svg width="1346pt" height="210pt"
 viewBox="0.00 0.00 1345.70 210.00" xmlns="http://www.w3.org/2000/svg" xmlns:xlink="http://www.w3.org/1999/xlink">
<g id="graph0" class="graph" transform="scale(1 1) rotate(0) translate(4 206)">
<polygon fill="white" stroke="none" points="-4,4 -4,-206 1341.7,-206 1341.7,4 -4,4"/>
<!-- 1887218486288 -->
<g id="node1" class="node">
<title>1887218486288</title>
<polygon fill="none" stroke="black" points="288.5,-165.5 288.5,-201.5 455.5,-201.5 455.5,-165.5 288.5,-165.5"/>
<text text-anchor="middle" x="331" y="-178.2" font-family="Times New Roman,serif" font-size="14.00">data &#45;2.0000</text>
<polyline fill="none" stroke="black" points="373.5,-165.75 373.5,-201.5"/>
<text text-anchor="middle" x="414.5" y="-178.2" font-family="Times New Roman,serif" font-size="14.00">grad 0.0665</text>
</g>
<!-- 1887218489296* -->
<g id="node13" class="node">
<title>1887218489296*</title>
<ellipse fill="none" stroke="black" cx="518.5" cy="-128.5" rx="27" ry="18"/>
<text text-anchor="middle" x="518.5" y="-123.08" font-family="Times New Roman,serif" font-size="14.00">*</text>
</g>
<!-- 1887218486288&#45;&gt;1887218489296* -->
<g id="edge8" class="edge">
<title>1887218486288&#45;&gt;1887218489296*</title>
<path fill="none" stroke="black" d="M431.87,-165.1C439.86,-162.35 447.91,-159.44 455.5,-156.5 465.42,-152.65 476.04,-148.04 485.63,-143.69"/>
<polygon fill="black" stroke="black" points="486.95,-146.93 494.56,-139.56 484.02,-140.58 486.95,-146.93"/>
</g>
<!-- 1887218490384 -->
<g id="node2" class="node">
<title>1887218490384</title>
<polygon fill="none" stroke="black" points="1175.2,-82.5 1175.2,-118.5 1337.7,-118.5 1337.7,-82.5 1175.2,-82.5"/>
<text text-anchor="middle" x="1215.45" y="-95.2" font-family="Times New Roman,serif" font-size="14.00">data 0.1024</text>
<polyline fill="none" stroke="black" points="1255.7,-82.75 1255.7,-118.5"/>
<text text-anchor="middle" x="1296.7" y="-95.2" font-family="Times New Roman,serif" font-size="14.00">grad 1.0000</text>
</g>
<!-- 1887218490384ReLU -->
<g id="node3" class="node">
<title>1887218490384ReLU</title>
<ellipse fill="none" stroke="black" cx="1106.1" cy="-100.5" rx="33.1" ry="18"/>
<text text-anchor="middle" x="1106.1" y="-95.08" font-family="Times New Roman,serif" font-size="14.00">ReLU</text>
</g>
<!-- 1887218490384ReLU&#45;&gt;1887218490384 -->
<g id="edge1" class="edge">
<title>1887218490384ReLU&#45;&gt;1887218490384</title>
<path fill="none" stroke="black" d="M1139.66,-100.5C1147.01,-100.5 1155.17,-100.5 1163.66,-100.5"/>
<polygon fill="black" stroke="black" points="1163.45,-104 1173.45,-100.5 1163.45,-97 1163.45,-104"/>
</g>
<!-- 1887218486352 -->
<g id="node4" class="node">
<title>1887218486352</title>
<polygon fill="none" stroke="black" points="290.75,-55.5 290.75,-91.5 453.25,-91.5 453.25,-55.5 290.75,-55.5"/>
<text text-anchor="middle" x="331" y="-68.2" font-family="Times New Roman,serif" font-size="14.00">data 0.2355</text>
<polyline fill="none" stroke="black" points="371.25,-55.75 371.25,-91.5"/>
<text text-anchor="middle" x="412.25" y="-68.2" font-family="Times New Roman,serif" font-size="14.00">grad 1.0000</text>
</g>
<!-- 1887218490192+ -->
<g id="node9" class="node">
<title>1887218490192+</title>
<ellipse fill="none" stroke="black" cx="518.5" cy="-73.5" rx="27" ry="18"/>
<text text-anchor="middle" x="518.5" y="-68.08" font-family="Times New Roman,serif" font-size="14.00">+</text>
</g>
<!-- 1887218486352&#45;&gt;1887218490192+ -->
<g id="edge14" class="edge">
<title>1887218486352&#45;&gt;1887218490192+</title>
<path fill="none" stroke="black" d="M453.7,-73.5C462.82,-73.5 471.76,-73.5 479.92,-73.5"/>
<polygon fill="black" stroke="black" points="479.75,-77 489.75,-73.5 479.75,-70 479.75,-77"/>
</g>
<!-- 1887218486352* -->
<g id="node5" class="node">
<title>1887218486352*</title>
<ellipse fill="none" stroke="black" cx="225.5" cy="-73.5" rx="27" ry="18"/>
<text text-anchor="middle" x="225.5" y="-68.08" font-family="Times New Roman,serif" font-size="14.00">*</text>
</g>
<!-- 1887218486352*&#45;&gt;1887218486352 -->
<g id="edge2" class="edge">
<title>1887218486352*&#45;&gt;1887218486352</title>
<path fill="none" stroke="black" d="M252.67,-73.5C260.44,-73.5 269.44,-73.5 278.93,-73.5"/>
<polygon fill="black" stroke="black" points="278.74,-77 288.74,-73.5 278.74,-70 278.74,-77"/>
</g>
<!-- 1887218486224 -->
<g id="node6" class="node">
<title>1887218486224</title>
<polygon fill="none" stroke="black" points="0,-83.5 0,-119.5 162.5,-119.5 162.5,-83.5 0,-83.5"/>
<text text-anchor="middle" x="40.25" y="-96.2" font-family="Times New Roman,serif" font-size="14.00">data 1.0000</text>
<polyline fill="none" stroke="black" points="80.5,-83.75 80.5,-119.5"/>
<text text-anchor="middle" x="121.5" y="-96.2" font-family="Times New Roman,serif" font-size="14.00">grad 0.2355</text>
</g>
<!-- 1887218486224&#45;&gt;1887218486352* -->
<g id="edge12" class="edge">
<title>1887218486224&#45;&gt;1887218486352*</title>
<path fill="none" stroke="black" d="M162.93,-85.62C171.68,-83.9 180.23,-82.21 188.04,-80.68"/>
<polygon fill="black" stroke="black" points="188.63,-84.13 197.77,-78.76 187.28,-77.26 188.63,-84.13"/>
</g>
<!-- 1887218486096 -->
<g id="node7" class="node">
<title>1887218486096</title>
<polygon fill="none" stroke="black" points="288.5,-110.5 288.5,-146.5 455.5,-146.5 455.5,-110.5 288.5,-110.5"/>
<text text-anchor="middle" x="328.75" y="-123.2" font-family="Times New Roman,serif" font-size="14.00">data 0.0665</text>
<polyline fill="none" stroke="black" points="369,-110.75 369,-146.5"/>
<text text-anchor="middle" x="412.25" y="-123.2" font-family="Times New Roman,serif" font-size="14.00">grad &#45;2.0000</text>
</g>
<!-- 1887218486096&#45;&gt;1887218489296* -->
<g id="edge7" class="edge">
<title>1887218486096&#45;&gt;1887218489296*</title>
<path fill="none" stroke="black" d="M455.8,-128.5C464.06,-128.5 472.13,-128.5 479.57,-128.5"/>
<polygon fill="black" stroke="black" points="479.53,-132 489.53,-128.5 479.53,-125 479.53,-132"/>
</g>
<!-- 1887218490192 -->
<g id="node8" class="node">
<title>1887218490192</title>
<polygon fill="none" stroke="black" points="583.75,-55.5 583.75,-91.5 746.25,-91.5 746.25,-55.5 583.75,-55.5"/>
<text text-anchor="middle" x="624" y="-68.2" font-family="Times New Roman,serif" font-size="14.00">data 0.2355</text>
<polyline fill="none" stroke="black" points="664.25,-55.75 664.25,-91.5"/>
<text text-anchor="middle" x="705.25" y="-68.2" font-family="Times New Roman,serif" font-size="14.00">grad 1.0000</text>
</g>
<!-- 1887218490320+ -->
<g id="node15" class="node">
<title>1887218490320+</title>
<ellipse fill="none" stroke="black" cx="811.5" cy="-100.5" rx="27" ry="18"/>
<text text-anchor="middle" x="811.5" y="-95.08" font-family="Times New Roman,serif" font-size="14.00">+</text>
</g>
<!-- 1887218490192&#45;&gt;1887218490320+ -->
<g id="edge9" class="edge">
<title>1887218490192&#45;&gt;1887218490320+</title>
<path fill="none" stroke="black" d="M746.7,-88.58C756.19,-90.35 765.48,-92.09 773.91,-93.66"/>
<polygon fill="black" stroke="black" points="773.22,-97.1 783.7,-95.49 774.51,-90.21 773.22,-97.1"/>
</g>
<!-- 1887218490192+&#45;&gt;1887218490192 -->
<g id="edge3" class="edge">
<title>1887218490192+&#45;&gt;1887218490192</title>
<path fill="none" stroke="black" d="M545.67,-73.5C553.44,-73.5 562.44,-73.5 571.93,-73.5"/>
<polygon fill="black" stroke="black" points="571.74,-77 581.74,-73.5 571.74,-70 571.74,-77"/>
</g>
<!-- 1887218485584 -->
<g id="node10" class="node">
<title>1887218485584</title>
<polygon fill="none" stroke="black" points="0,-28.5 0,-64.5 162.5,-64.5 162.5,-28.5 0,-28.5"/>
<text text-anchor="middle" x="40.25" y="-41.2" font-family="Times New Roman,serif" font-size="14.00">data 0.2355</text>
<polyline fill="none" stroke="black" points="80.5,-28.75 80.5,-64.5"/>
<text text-anchor="middle" x="121.5" y="-41.2" font-family="Times New Roman,serif" font-size="14.00">grad 1.0000</text>
</g>
<!-- 1887218485584&#45;&gt;1887218486352* -->
<g id="edge6" class="edge">
<title>1887218485584&#45;&gt;1887218486352*</title>
<path fill="none" stroke="black" d="M162.93,-61.81C171.68,-63.47 180.23,-65.1 188.04,-66.58"/>
<polygon fill="black" stroke="black" points="187.29,-70 197.77,-68.43 188.6,-63.12 187.29,-70"/>
</g>
<!-- 1887218486160 -->
<g id="node11" class="node">
<title>1887218486160</title>
<polygon fill="none" stroke="black" points="290.75,-0.5 290.75,-36.5 453.25,-36.5 453.25,-0.5 290.75,-0.5"/>
<text text-anchor="middle" x="331" y="-13.2" font-family="Times New Roman,serif" font-size="14.00">data 0.0000</text>
<polyline fill="none" stroke="black" points="371.25,-0.75 371.25,-36.5"/>
<text text-anchor="middle" x="412.25" y="-13.2" font-family="Times New Roman,serif" font-size="14.00">grad 1.0000</text>
</g>
<!-- 1887218486160&#45;&gt;1887218490192+ -->
<g id="edge13" class="edge">
<title>1887218486160&#45;&gt;1887218490192+</title>
<path fill="none" stroke="black" d="M431.87,-36.9C439.86,-39.65 447.91,-42.56 455.5,-45.5 465.42,-49.35 476.04,-53.96 485.63,-58.31"/>
<polygon fill="black" stroke="black" points="484.02,-61.42 494.56,-62.44 486.95,-55.07 484.02,-61.42"/>
</g>
<!-- 1887218489296 -->
<g id="node12" class="node">
<title>1887218489296</title>
<polygon fill="none" stroke="black" points="581.5,-110.5 581.5,-146.5 748.5,-146.5 748.5,-110.5 581.5,-110.5"/>
<text text-anchor="middle" x="624" y="-123.2" font-family="Times New Roman,serif" font-size="14.00">data &#45;0.1331</text>
<polyline fill="none" stroke="black" points="666.5,-110.75 666.5,-146.5"/>
<text text-anchor="middle" x="707.5" y="-123.2" font-family="Times New Roman,serif" font-size="14.00">grad 1.0000</text>
</g>
<!-- 1887218489296&#45;&gt;1887218490320+ -->
<g id="edge10" class="edge">
<title>1887218489296&#45;&gt;1887218490320+</title>
<path fill="none" stroke="black" d="M748.8,-112.46C757.59,-110.75 766.17,-109.09 774.01,-107.57"/>
<polygon fill="black" stroke="black" points="774.61,-111.02 783.76,-105.68 773.28,-104.15 774.61,-111.02"/>
</g>
<!-- 1887218489296*&#45;&gt;1887218489296 -->
<g id="edge4" class="edge">
<title>1887218489296*&#45;&gt;1887218489296</title>
<path fill="none" stroke="black" d="M545.67,-128.5C552.87,-128.5 561.13,-128.5 569.85,-128.5"/>
<polygon fill="black" stroke="black" points="569.6,-132 579.6,-128.5 569.6,-125 569.6,-132"/>
</g>
<!-- 1887218490320 -->
<g id="node14" class="node">
<title>1887218490320</title>
<polygon fill="none" stroke="black" points="874.5,-82.5 874.5,-118.5 1037,-118.5 1037,-82.5 874.5,-82.5"/>
<text text-anchor="middle" x="914.75" y="-95.2" font-family="Times New Roman,serif" font-size="14.00">data 0.1024</text>
<polyline fill="none" stroke="black" points="955,-82.75 955,-118.5"/>
<text text-anchor="middle" x="996" y="-95.2" font-family="Times New Roman,serif" font-size="14.00">grad 1.0000</text>
</g>
<!-- 1887218490320&#45;&gt;1887218490384ReLU -->
<g id="edge11" class="edge">
<title>1887218490320&#45;&gt;1887218490384ReLU</title>
<path fill="none" stroke="black" d="M1037.44,-100.5C1045.64,-100.5 1053.74,-100.5 1061.33,-100.5"/>
<polygon fill="black" stroke="black" points="1061.25,-104 1071.25,-100.5 1061.25,-97 1061.25,-104"/>
</g>
<!-- 1887218490320+&#45;&gt;1887218490320 -->
<g id="edge5" class="edge">
<title>1887218490320+&#45;&gt;1887218490320</title>
<path fill="none" stroke="black" d="M838.92,-100.5C846.02,-100.5 854.11,-100.5 862.65,-100.5"/>
<polygon fill="black" stroke="black" points="862.56,-104 872.56,-100.5 862.56,-97 862.56,-104"/>
</g>
</g>
</svg>
